<svg xmlns="http://www.w3.org/2000/svg" width="55" height="55" viewBox="0 0 55 55">
    <g fill="none" fill-rule="evenodd">
        <g>
            <g transform="translate(-1041 -4671) translate(1041 4671)">
                <circle cx="27.5" cy="27.5" r="27.5" fill="#1F242E"/>
                <g fill="#FFF" fill-rule="nonzero">
                    <path d="M8.77 31.23L1 31.21c-.552 0-1-.448-1-1V14.94c-.003-.26.102-.51.29-.69.195-.173.45-.262.71-.25h7.78c.552 0 1 .448 1 1v15.27c-.001.262-.105.514-.29.7-.196.179-.455.272-.72.26zm-7.72-1.07H8.7L8.74 15H1.09l-.04 15.16z" transform="translate(11 9)"/>
                    <path d="M23.64 31.09h-9.22c-.66.002-1.317-.092-1.95-.28L9.94 30c-.708-.211-1.196-.86-1.2-1.6L8.78 16c-.001-.587.208-1.155.59-1.6 1.51-1.75 2.5-2.94 2.78-3.35L14 8.41c.797-1.144 1.392-2.415 1.76-3.76l.94-3.4c.018-.065.048-.127.09-.18.86-1.131 2.456-1.39 3.63-.59 1.26.87 1 6 .27 7.49-.686 1.311-1.23 2.693-1.62 4.12-.118.289-.008.62.26.78.736.198 1.503.255 2.26.17H27.96c1.347-.014 2.504.952 2.73 2.28.23 1.352-.612 2.656-1.94 3 .57.508.894 1.236.89 2-.013 1.277-.918 2.37-2.17 2.62.734.663 1.037 1.68.787 2.636-.25.957-1.013 1.695-1.977 1.914.22.54.249 1.14.08 1.7-.396 1.158-1.496 1.927-2.72 1.9zm-6-29.46l-.92 3.3c-.394 1.454-1.033 2.83-1.89 4.07L13 11.64c-.31.45-1.27 1.6-2.84 3.43-.218.257-.339.583-.34.92v12.45c.001.272.18.511.44.59l2.53.74c.539.16 1.098.24 1.66.24h9.22c.773.016 1.468-.469 1.72-1.2.095-.33.074-.683-.06-1-.109-.284-.09-.6.05-.87.137-.273.391-.468.69-.53.728-.172 1.241-.822 1.24-1.57.005-.453-.184-.886-.52-1.19-.334-.248-.48-.676-.367-1.076.113-.4.463-.689.877-.724.759-.152 1.306-.816 1.31-1.59.006-.458-.188-.896-.53-1.2-.322-.239-.471-.647-.377-1.037.093-.39.411-.687.807-.753.796-.215 1.3-.996 1.17-1.81-.155-.801-.864-1.375-1.68-1.36h-6.33c-1.64 0-2.41 0-2.92-.38-.616-.381-.919-1.115-.75-1.82.425-1.516.997-2.986 1.71-4.39.69-1.42.63-5.68.08-6.17-.68-.46-1.598-.336-2.13.29h-.02z" transform="translate(11 9)"/>
                </g>
            </g>
        </g>
    </g>
</svg>
