<svg xmlns="http://www.w3.org/2000/svg" width="55" height="55" viewBox="0 0 55 55">
    <g fill="none" fill-rule="evenodd">
        <g>
            <g transform="translate(-180 -4671) translate(180 4671)">
                <circle cx="27.5" cy="27.5" r="27.5" fill="#1F242E"/>
                <g fill="#FFF" fill-rule="nonzero">
                    <path d="M15.28 19.22L15.28.57M15.28 19.79c-.313-.005-.565-.257-.57-.57V.57c.005-.313.257-.565.57-.57.315 0 .57.255.57.57v18.65c0 .315-.255.57-.57.57z" transform="translate(12 14)"/>
                    <path d="M15.28 20.72c-.15 0-.295-.062-.4-.17L6.53 12.2c-.219-.222-.219-.578 0-.8.106-.11.252-.173.405-.173.153 0 .3.062.405.173l7.92 7.92 7-7.9c.136-.152.342-.22.542-.178.199.042.361.186.425.38.063.193.019.406-.117.558l-7.42 8.35c-.108.112-.255.18-.41.19z" transform="translate(12 14)"/>
                    <path d="M29.07 26.85H.57c-.315 0-.57-.255-.57-.57v-8.42c.005-.313.257-.565.57-.57.313.005.565.257.57.57v7.85H28.5v-7.85c0-.151.06-.296.167-.403.107-.107.252-.167.403-.167.313.005.565.257.57.57v8.42c0 .315-.255.57-.57.57z" transform="translate(12 14)"/>
                </g>
            </g>
        </g>
    </g>
</svg>
