<svg xmlns="http://www.w3.org/2000/svg" width="55" height="55" viewBox="0 0 55 55">
    <g fill="none" fill-rule="evenodd">
        <g>
            <g transform="translate(-548 -4671) translate(548 4671)">
                <circle cx="27.5" cy="27.5" r="27.5" fill="#1F242E"/>
                <g fill-rule="nonzero">
                    <path fill="#FFF" d="M30.81 28.87H3.4c-.224-.01-.4-.196-.4-.42V11.17c0-.232.188-.42.42-.42h27.39c.111 0 .218.044.297.123.079.079.123.186.123.297v17.28c0 .111-.044.218-.123.297-.079.079-.186.123-.297.123zM3.82 28h26.57V11.59H3.82V28z" transform="translate(9 12)"/>
                    <path fill="#FFF" d="M13.89 28.87h-6.5c-.22-.016-.39-.2-.39-.42V17.6c0-.778.622-1.414 1.4-1.43h5.49c.232 0 .42.188.42.42v11.86c0 .232-.188.42-.42.42zM7.81 28h5.66V17H8.4c-.324.005-.585.266-.59.59V28z" transform="translate(9 12)"/>
                    <path fill="#FFF" d="M26.88 28.87h-13c-.232 0-.42-.188-.42-.42V16.59c0-.232.188-.42.42-.42h12c.786.005 1.42.644 1.42 1.43v10.85c0 .111-.044.218-.123.297-.079.079-.186.123-.297.123zM14.29 28h12.17V17.6c-.005-.324-.266-.585-.59-.59H14.29V28z" transform="translate(9 12)"/>
                    <path fill="#262626" d="M5.32 1.4h7.18l-1.92 11c-1.407.963-3.074 1.476-4.78 1.47-1.39.006-2.7-.655-3.521-1.777-.821-1.122-1.055-2.57-.629-3.893l2.1-5.7c.24-.66.867-1.1 1.57-1.1z" transform="translate(9 12)"/>
                    <path fill="#FFF" d="M6.09 14.28h-.31c-1.629-.078-3.124-.924-4.03-2.28-.795-1.178-.974-2.667-.48-4l2.1-5.7C3.695 1.51 4.466.997 5.32 1h7.18c.116-.003.228.049.3.14.08.09.112.212.09.33L11 12.46c-.02.103-.077.195-.16.26-1.404.958-3.051 1.499-4.75 1.56zM5.32 1.8c-.535.007-1.01.34-1.2.84L2 8.33c-.397 1.091-.249 2.307.4 3.27.774 1.126 2.035 1.82 3.4 1.87 1.563.003 3.093-.453 4.4-1.31L12 1.8H5.32z" transform="translate(9 12)"/>
                    <path fill="#262626" d="M29.17 1.4H22l1.92 11s4.06 2.95 7.56.54c1.483-.947 2.114-2.794 1.52-4.45l-2.21-6c-.25-.674-.902-1.113-1.62-1.09z" transform="translate(9 12)"/>
                    <path fill="#FFF" d="M28.39 14.29c-1.69-.064-3.328-.609-4.72-1.57-.083-.065-.14-.157-.16-.26L21.6 1.47c-.022-.118.01-.24.09-.33.074-.094.19-.146.31-.14h7.18c.869.006 1.644.547 1.95 1.36l2.21 6c.66 1.817-.014 3.849-1.63 4.91-.974.675-2.134 1.032-3.32 1.02zm-4.12-2.13c.7.45 4.09 2.43 7 .44 1.325-.858 1.874-2.522 1.32-4l-2.2-6c-.205-.491-.688-.808-1.22-.8h-6.7l1.8 10.36z" transform="translate(9 12)"/>
                    <path fill="#262626" d="M12.5 1.4l-1.92 11c.45 0 6.25 5 13.33 0L22 1.4h-9.5z" transform="translate(9 12)"/>
                    <path fill="#FFF" d="M17.4 15c-2.313-.055-4.565-.747-6.51-2l-.38-.21c-.09-.02-.17-.07-.23-.14-.08-.09-.112-.212-.09-.33L12.1 1.33c.038-.191.205-.329.4-.33H22c.195.001.362.139.4.33l1.91 11c.027.153-.035.308-.16.4-1.954 1.45-4.317 2.245-6.75 2.27zM11 12.16l.27.16c3.675 2.53 8.542 2.487 12.17-.11L21.66 1.8h-8.83L11 12.16z" transform="translate(9 12)"/>
                    <path fill="#383838" d="M12.7 21.54L12.7 23.18" transform="translate(9 12)"/>
                    <path fill="#FFF" d="M12.14 23.6c-.232 0-.42-.188-.42-.42v-1.64c0-.232.188-.42.42-.42.232 0 .42.188.42.42v1.64c0 .232-.188.42-.42.42z" transform="translate(9 12)"/>
                </g>
            </g>
        </g>
    </g>
</svg>
