<?xml version="1.0" encoding="UTF-8"?>
<svg width="262px" height="24px" viewBox="0 0 262 24" version="1.1" xmlns="http://www.w3.org/2000/svg" xmlns:xlink="http://www.w3.org/1999/xlink">
    <!-- Generator: Sketch 60.1 (88133) - https://sketch.com -->
    <title>box8</title>
    <desc>Created with Sketch.</desc>
    <g id="box8" stroke="none" stroke-width="1" fill="none" fill-rule="evenodd">
        <g id="Group-21-Copy-2">
            <path d="M11.9362302,20.0972575 L13.4950477,21 L15.0633889,20.0972575 C15.1791954,20.0286948 15.3102397,19.9944134 15.4435697,19.9944134 L17.2538094,19.9944134 L18.1532152,18.432707 C18.2202611,18.3184358 18.3166396,18.2194007 18.4328271,18.154647 L19.9927875,17.2557136 L19.9939303,15.4464195 C19.9939303,15.3092941 20.028977,15.1797867 20.095642,15.0655155 L21,13.496191 L20.0986896,11.9382936 C20.0316436,11.8202133 19.9965969,11.6907059 19.9965969,11.5573895 L19.9977397,9.75571356 L18.4305414,8.84916201 C18.3151158,8.78059929 18.2191182,8.68537329 18.1520723,8.57110208 L17.2461906,7.00558659 L15.4454744,7.00558659 C15.3110016,7.00558659 15.1795764,6.97130523 15.0637698,6.90274251 L13.5049523,6 L11.9366111,6.90655155 C11.8208046,6.97130523 11.6897603,7.00558659 11.5564303,7.00558659 L9.74619057,7.00939563 L8.84678484,8.56729304 C8.77973893,8.68537329 8.68336042,8.78059929 8.5671729,8.84916201 L7.00721252,9.74809548 L7.00606969,11.5573895 C7.00606969,11.6907059 6.97102296,11.8202133 6.90435798,11.9382936 L6,13.503809 L6.90131044,15.0655155 C6.96835636,15.1797867 7.00340309,15.3131031 7.00340309,15.4464195 L7.00226026,17.2442864 L8.56945855,18.150838 C8.68488419,18.2194007 8.78088176,18.3146267 8.84792767,18.4288979 L9.75380943,19.9982224 L11.5545256,19.9982224 C11.6889984,19.9982224 11.8204236,20.0325038 11.9362302,20.0972575 Z" id="Path" fill-opacity="0.18" fill="#FB475E"></path>
            <g id="Group-18">
                <g id="Group" transform="translate(12.500000, 12.500000) scale(-1, 1) translate(-12.500000, -12.500000) translate(2.000000, 2.000000)" fill="#EB202D" fill-opacity="0.85">
                    <path d="M8.81228571,18.0775 L10.566,19.114375 L12.3304286,18.0775 C12.4607143,17.99875 12.6081429,17.959375 12.7581429,17.959375 L14.7947143,17.959375 L15.8065714,16.165625 C15.882,16.034375 15.9904286,15.920625 16.1211429,15.84625 L17.8761429,14.81375 L17.8774286,12.735625 C17.8774286,12.578125 17.9168571,12.429375 17.9918571,12.298125 L19.0092857,10.495625 L17.9952857,8.70625 C17.9198571,8.570625 17.8804286,8.421875 17.8804286,8.26875 L17.8817143,6.199375 L16.1185714,5.158125 C15.9887143,5.079375 15.8807143,4.97 15.8052857,4.83875 L14.7861429,3.040625 L12.7602857,3.040625 C12.609,3.040625 12.4611429,3.00125 12.3308571,2.9225 L10.5771429,1.885625 L8.81271429,2.926875 C8.68242857,3.00125 8.535,3.040625 8.385,3.040625 L6.34842857,3.045 L5.33657143,4.834375 C5.26114286,4.97 5.15271429,5.079375 5.022,5.158125 L3.267,6.190625 L3.26571429,8.26875 C3.26571429,8.421875 3.22628571,8.570625 3.15128571,8.70625 L2.13385714,10.504375 L3.14785714,12.298125 C3.22328571,12.429375 3.26271429,12.5825 3.26271429,12.735625 L3.26142857,14.800625 L5.02457143,15.841875 C5.15442857,15.920625 5.26242857,16.03 5.33785714,16.16125 L6.357,17.96375 L8.38285714,17.96375 C8.53414286,17.96375 8.682,18.003125 8.81228571,18.0775 Z M10.1361429,20.881875 L8.15357143,19.71375 L5.86328571,19.71375 C5.55685714,19.71375 5.274,19.5475 5.12057143,19.27625 L3.96814286,17.241875 L1.97485714,16.065 C1.71,15.9075 1.54671429,15.61875 1.54671429,15.308125 L1.54842857,12.9675 L0.402,10.94625 C0.249,10.675 0.248571429,10.3425 0.401142857,10.07125 L1.55185714,8.0325 L1.55314286,5.683125 C1.55357143,5.368125 1.71685714,5.079375 1.98214286,4.92625 L3.96642857,3.758125 L5.11028571,1.7325 C5.26328571,1.46125 5.54614286,1.295 5.85257143,1.295 L8.15485714,1.290625 L10.1498571,0.118125 C10.4151429,-0.039375 10.7417143,-0.035 11.007,0.118125 L12.9895714,1.290625 L15.2798571,1.28625 C15.5862857,1.28625 15.8691429,1.456875 16.0225714,1.72375 L17.175,3.758125 L19.1682857,4.935 C19.4331429,5.0925 19.5964286,5.38125 19.5964286,5.69625 L19.5947143,8.0325 L20.7411429,10.058125 C20.8941429,10.329375 20.8945714,10.661875 20.7415714,10.933125 L19.5912857,12.9675 L19.59,15.316875 C19.5895714,15.631875 19.4262857,15.920625 19.1605714,16.078125 L17.1767143,17.241875 L16.0328571,19.2675 C15.8798571,19.53875 15.597,19.709375 15.2905714,19.709375 L12.9882857,19.709375 L10.9932857,20.881875 C10.8608571,20.960625 10.713,21 10.5651429,21 C10.4172857,21 10.269,20.960625 10.1361429,20.881875 Z" id="Fill-249"></path>
                    <g id="Group-5" transform="translate(10.571571, 10.906250) rotate(-78.000000) translate(-10.571571, -10.906250) translate(6.071571, 5.906250)">
                        <path d="M0.642857143,9.1875 C0.478285714,9.1875 0.313714286,9.12625 0.188142857,8.995 C-0.0625714286,8.74125 -0.0625714286,8.325625 0.188142857,8.0675 L7.90242857,0.196875 C8.15357143,-0.06125 8.56071429,-0.06125 8.81185714,0.196875 C9.06257143,0.450625 9.06257143,0.86625 8.81185714,1.124375 L1.09757143,8.995 C0.972,9.12625 0.807428571,9.1875 0.642857143,9.1875" id="Fill-250"></path>
                        <path d="M7.13485714,5.38125 C6.105,5.38125 5.27014286,6.234375 5.27014286,7.284375 C5.27014286,8.334375 6.105,9.1875 7.13485714,9.1875 C8.16514286,9.1875 9,8.334375 9,7.284375 C9,6.234375 8.16514286,5.38125 7.13485714,5.38125 Z M7.13485714,6.69375 C7.45457143,6.69375 7.71428571,6.95625 7.71428571,7.284375 C7.71428571,7.6125 7.45457143,7.875 7.13485714,7.875 C6.81557143,7.875 6.55585714,7.6125 6.55585714,7.284375 C6.55585714,6.95625 6.81557143,6.69375 7.13485714,6.69375 L7.13485714,6.69375 Z" id="Fill-251"></path>
                        <path d="M1.86514286,2.8643754e-14 C0.834857143,2.8643754e-14 -2.28705943e-14,0.853125 -2.28705943e-14,1.903125 C-2.28705943e-14,2.9575 0.834857143,3.80625 1.86514286,3.80625 C2.895,3.80625 3.72985714,2.9575 3.72985714,1.903125 C3.72985714,0.853125 2.895,2.8643754e-14 1.86514286,2.8643754e-14 Z M1.86514286,1.3125 C2.18442857,1.3125 2.44414286,1.579375 2.44414286,1.903125 C2.44414286,2.23125 2.18442857,2.49375 1.86514286,2.49375 C1.54542857,2.49375 1.28571429,2.23125 1.28571429,1.903125 C1.28571429,1.579375 1.54542857,1.3125 1.86514286,1.3125 L1.86514286,1.3125 Z" id="Fill-252"></path>
                    </g>
                </g>
                <rect id="Rectangle" fill="#D8D8D8" opacity="0" x="0" y="0" width="24" height="24"></rect>
                <g id="Group-34-Copy" transform="translate(3.000000, 0.000000)" fill="#FB475E" fill-rule="nonzero">
                    <circle id="Oval" fill-opacity="0.772956295" cx="14" cy="1" r="1"></circle>
                    <circle id="Oval" fill-opacity="0.772956295" cx="0.75" cy="2.75" r="1"></circle>
                    <circle id="Oval" opacity="0.44640532" cx="16.75" cy="4.75" r="1"></circle>
                </g>
            </g>
        </g>
        <g id="Group-24-Copy-2" transform="translate(34.000000, 0.000000)">
            <g id="Group-12">
                <g id="Group-7" transform="translate(3.000000, 2.000000)">
                    <g id="love-copy" transform="translate(0.000000, 4.000000)" stroke="#EB202D" stroke-linecap="round" stroke-linejoin="round" stroke-opacity="0.85" stroke-width="1.5">
                        <path d="M9,15.8125 C9,15.8125 17.75,12.0345924 17.75,4.84829528 C17.6675122,2.42257908 15.7331258,0.5 13.375,0.5 C11.0168742,0.5 9.08248775,2.42257908 9,4.84829528 C8.91751225,2.42257908 6.98312579,0.5 4.625,0.5 C2.26687421,0.5 0.332487755,2.42257908 0.25,4.84829528 C0.25,12.0345924 9,15.8125 9,15.8125 Z" id="43.-love"></path>
                    </g>
                    <g id="Group-34-Copy" transform="translate(1.000000, 0.000000)" fill="#FB475E" fill-rule="nonzero">
                        <circle id="Oval" fill-opacity="0.772956295" cx="14" cy="1" r="1"></circle>
                        <circle id="Oval" fill-opacity="0.772956295" cx="0.75" cy="2.75" r="1"></circle>
                        <circle id="Oval" opacity="0.44640532" cx="16.75" cy="4.75" r="1"></circle>
                    </g>
                    <path d="M9.5,18 C9.5,18 16,15.2860746 16,10.1236733 C15.9387234,8.38111803 14.5017506,7 12.75,7 C10.9982494,7 9.56127662,8.38111803 9.5,10.1236733 C9.43872338,8.38111803 8.00175059,7 6.25,7 C4.49824941,7 3.06127662,8.38111803 3,10.1236733 C3,15.2860746 9.5,18 9.5,18 Z" id="43.-love" fill-opacity="0.169157609" fill="#FB475E"></path>
                </g>
                <rect id="Rectangle" fill="#D8D8D8" opacity="0" x="0" y="0" width="24" height="24"></rect>
            </g>
        </g>
        <g id="Group-4-Copy-2" transform="translate(68.000000, 0.000000)">
            <rect id="Rectangle" x="0" y="0" width="24" height="24"></rect>
            <g id="Group-6" transform="translate(2.000000, 5.000000)" fill-rule="nonzero">
                <path d="M0.601666623,0.5 C0.269366147,0.5 0,0.760302451 0,1.08139996 C0,1.40249746 0.269366147,1.66279992 0.601666623,1.66279992 L2.6009647,1.66279992 C3.59676307,4.04605331 4.57762006,6.43366332 5.56541627,8.82127721 L4.656659,10.934918 C4.58052811,11.1111403 4.60194745,11.3236226 4.71183183,11.4823254 C4.82173626,11.6410282 5.01683669,11.7412035 5.21444407,11.7404089 L15.2422211,11.7404089 C15.5600816,11.7446725 15.8524515,11.4662013 15.8524515,11.1590089 C15.8524515,10.8518166 15.5600816,10.5732678 15.2422211,10.577609 L6.116944,10.577609 L6.63714497,9.37845217 L16.2951377,8.63354316 C16.547938,8.61435696 16.7767718,8.42406476 16.8341307,8.1853807 C17.1711528,6.77414607 17.4239194,5.7157201 17.5924304,5.01010278 C17.6913269,4.59598684 17.8396717,3.97481294 18.0374648,3.14658106 C18.1161628,2.80719271 17.8082499,2.43686613 17.4483329,2.43799986 C15.471296,2.43799986 13.9885184,2.43799986 13,2.43799986 C11.0484275,2.43799986 8.12106872,2.43799986 4.2179237,2.43799986 L3.56611819,0.863374974 C3.47687097,0.650229873 3.24627221,0.5 3.00833312,0.5 L0.601666623,0.5 Z M7.21999948,12.5156088 C6.11949106,12.5156088 5.21444407,13.3901506 5.21444407,14.4536087 C5.21444407,15.5170473 6.11949106,16.3916085 7.21999948,16.3916085 C8.3205079,16.3916085 9.22555489,15.5170473 9.22555489,14.4536087 C9.22555489,13.39017 8.3205079,12.5156088 7.21999948,12.5156088 Z M13.2366657,12.5156088 C12.1361573,12.5156088 11.2311103,13.39017 11.2311103,14.4536087 C11.2311103,15.5170473 12.1361573,16.3916085 13.2366657,16.3916085 C14.3371741,16.3916085 15.2422211,15.5170473 15.2422211,14.4536087 C15.2422211,13.3901506 14.3371741,12.5156088 13.2366657,12.5156088 Z M7.21999948,13.6784087 C7.6701865,13.6784087 8.02222164,14.0185859 8.02222164,14.4536087 C8.02222164,14.8886315 7.6701865,15.2288086 7.21999948,15.2288086 C6.76985257,15.2288086 6.41777731,14.8886121 6.41777731,14.4536087 C6.41777731,14.0186052 6.76985257,13.6784087 7.21999948,13.6784087 Z M13.2366657,13.6784087 C13.6868126,13.6784087 14.0388879,14.0186052 14.0388879,14.4536087 C14.0388879,14.8886121 13.6868126,15.2288086 13.2366657,15.2288086 C12.7864787,15.2288086 12.4344435,14.8886315 12.4344435,14.4536087 C12.4344435,14.0185859 12.7864787,13.6784087 13.2366657,13.6784087 Z" id="Shape" stroke="#EE414C" stroke-width="0.7" fill="#EE414C"></path>
                <polygon id="Path" fill="#FFFFFF" points="4.70052049 3.60079978 16.6899915 3.60079978 15.7561447 7.51312924 6.61207552 8.21565225"></polygon>
                <polygon id="Path" fill-opacity="0.18" fill="#FB475E" points="6 4.5 16 4.5 15.2211109 7.89107652 7.59436145 8.5"></polygon>
            </g>
            <g id="Group-34-Copy" transform="translate(1.000000, 1.000000)" fill="#FB475E" fill-rule="nonzero">
                <circle id="Oval" fill-opacity="0.772956295" cx="16" cy="1" r="1"></circle>
                <circle id="Oval" fill-opacity="0.772956295" cx="0.75" cy="2.75" r="1"></circle>
                <circle id="Oval" opacity="0.44640532" cx="18.75" cy="4.75" r="1"></circle>
            </g>
        </g>
        <g id="Group-18-Copy-2" transform="translate(102.000000, 0.000000)">
            <g id="Group-3">
                <rect id="Rectangle" fill="#D8D8D8" opacity="0" x="0" y="0" width="24" height="24"></rect>
                <g id="Group-4" transform="translate(2.000000, 1.000000)">
                    <g id="Group-34-Copy" transform="translate(1.000000, 0.000000)" fill="#FF4F6F" fill-rule="nonzero">
                        <circle id="Oval" fill-opacity="0.772956295" cx="14" cy="1" r="1"></circle>
                        <circle id="Oval" fill-opacity="0.772956295" cx="0.75" cy="2.75" r="1"></circle>
                        <circle id="Oval" opacity="0.44640532" cx="16.75" cy="4.75" r="1"></circle>
                    </g>
                    <g id="Group-16" transform="translate(0.000000, 2.000000)" stroke="#EB202D" stroke-opacity="0.85" stroke-width="1.5">
                        <path d="M0.75,10 C0.75,15.1086339 4.89136606,19.25 10,19.25 C15.1086339,19.25 19.25,15.1086339 19.25,10 C19.25,4.89136606 15.1086339,0.75 10,0.75 C4.89136606,0.75 0.75,4.89136606 0.75,10 Z" id="Path"></path>
                        <path d="M13.5882,7.3854 C13.5882,9.3814 11.9702,10.9994 9.9742,10.9994 C7.97886667,10.9994 6.36086667,9.3814 6.36086667,7.3854 C6.36086667,5.3894 7.97886667,3.77206667 9.9742,3.77206667 C11.9702,3.77206667 13.5882,5.3894 13.5882,7.3854 Z" id="Stroke-5" stroke-linecap="round" stroke-linejoin="round"></path>
                        <path d="M3.73573333,17.0423333 C3.8404,13.687 6.59373333,10.9996667 9.9744,10.9996667 C13.3264,10.9996667 16.0610667,13.641 16.2097333,16.9563333" id="Stroke-3" stroke-linejoin="round"></path>
                    </g>
                    <g id="Group-2" transform="translate(5.000000, 6.000000)" fill="#FB475E" fill-opacity="0.179158">
                        <path d="M-5.68434189e-14,14.0423333 C0.104666667,10.687 2.858,7.99966667 6.23866667,7.99966667 C9.59066667,7.99966667 10.6057826,10.4235958 10.7544492,13.7389291 C7.06508839,14.8185823 5.0537413,15.3584089 4.72040796,15.3584089 C4.38707463,15.3584089 2.81360531,14.9197171 -5.68434189e-14,14.0423333 Z" id="Stroke-3"></path>
                        <circle id="Oval" cx="6.26426667" cy="3.12658228" r="3"></circle>
                    </g>
                </g>
            </g>
        </g>
        <g id="offer-copy" transform="translate(136.000000, 0.000000)">
            <g id="Group" transform="translate(12.000000, 13.000000) scale(-1, 1) translate(-12.000000, -13.000000) translate(2.000000, 3.000000)">
                <path d="M10.0620408,20 C9.92122449,20 9.78,19.9625 9.65346939,19.8875 L7.76530612,18.775 L5.58408163,18.775 C5.58367347,18.775 5.58367347,18.775 5.58367347,18.775 C5.2922449,18.775 5.02285714,18.6166667 4.87673469,18.3583333 L3.77918367,16.4208333 L1.88081633,15.3 C1.62857143,15.15 1.47306122,14.875 1.47306122,14.5791667 L1.47469388,12.35 L0.382857143,10.425 C0.237142857,10.1666667 0.236734694,9.85 0.382040816,9.59166667 L1.47795918,7.65 L1.47918367,5.4125 C1.47959184,5.1125 1.63510204,4.8375 1.8877551,4.69166667 L3.77755102,3.57916667 L4.86693878,1.65 C5.01265306,1.39166667 5.28204082,1.23333333 5.57387755,1.23333333 L7.76653061,1.22916667 L9.66653061,0.1125 C9.91918367,-0.0375 10.2302041,-0.0333333333 10.4828571,0.1125 L12.3710204,1.22916667 L14.5522449,1.225 C14.5526531,1.225 14.5526531,1.225 14.5526531,1.225 C14.8440816,1.225 15.1134694,1.3875 15.2595918,1.64166667 L16.3571429,3.57916667 L18.2555102,4.7 C18.5077551,4.85 18.6632653,5.125 18.6632653,5.425 L18.6616327,7.65 L19.7534694,9.57916667 C19.8991837,9.8375 19.8995918,10.1541667 19.7538776,10.4125 L18.6583673,12.35 L18.6571429,14.5875 C18.6567347,14.8875 18.5012245,15.1625 18.2481633,15.3125 L16.3587755,16.4208333 L15.2693878,18.35 C15.1236735,18.6083333 14.8542857,18.7708333 14.562449,18.7708333 L12.3697959,18.7708333 L10.4697959,19.8875 C10.3436735,19.9625 10.2028571,20 10.0620408,20 L10.0620408,20 Z" id="Path" stroke="#323C47" stroke-width="1.42857143"></path>
                <path d="M6.59546061,18.0299403 C6.73168089,18.0299403 6.86519224,18.0647658 6.98283702,18.1305473 L8.56639771,19.047619 L10.1596331,18.1305473 C10.2772779,18.0608963 10.4104023,18.0260708 10.5458486,18.0260708 L12.3848223,18.0260708 L13.2985043,16.4395753 C13.3666144,16.3234903 13.4645227,16.2228833 13.5825545,16.1571017 L15.1672762,15.2438995 L15.1684371,13.4058865 C15.1684371,13.2665844 15.2040402,13.1350214 15.2717633,13.0189364 L16.1904762,11.4247019 L15.2748592,9.84207599 C15.2067491,9.72212145 15.1711461,9.59055842 15.1711461,9.45512588 L15.172307,7.62485187 L13.5802326,6.70391061 C13.4629748,6.6342596 13.3654535,6.53752207 13.2973433,6.42143704 L12.3770825,4.83107209 L10.5477835,4.83107209 C10.5473965,4.83107209 10.5473965,4.83107209 10.5473965,4.83107209 C10.4111763,4.83107209 10.2776649,4.79624658 10.1600201,4.72659556 L8.57645943,3.80952381 L6.98322401,4.73046507 C6.86557923,4.79624658 6.73245487,4.83107209 6.59700857,4.83107209 L4.75803487,4.83494159 L3.84435286,6.41756753 C3.77624272,6.53752207 3.6783344,6.6342596 3.56030263,6.70391061 L1.97558097,7.61711287 L1.97442,9.45512588 C1.97442,9.59055842 1.93881697,9.72212145 1.87109383,9.84207599 L0.952380952,11.4324409 L1.86799791,13.0189364 C1.93610805,13.1350214 1.97171107,13.2704539 1.97171107,13.4058865 L1.97055011,15.232291 L3.56262456,16.1532322 C3.67988236,16.2228833 3.77740369,16.3196208 3.84551383,16.4357058 L4.76577466,18.0299403 L6.59507362,18.0299403 C6.59546061,18.0299403 6.59546061,18.0299403 6.59546061,18.0299403 Z" id="Path" fill-opacity="0.169157609" fill="#323C47" fill-rule="nonzero"></path>
                <g id="Group-5" transform="translate(9.856534, 10.122849) rotate(-78.000000) translate(-9.856534, -10.122849) translate(5.356534, 5.622849)" fill-rule="nonzero">
                    <path d="M0.612244898,8.75 C0.455510204,8.75 0.29877551,8.69166667 0.179183673,8.56666667 C-0.0595918367,8.325 -0.0595918367,7.92916667 0.179183673,7.68333333 L7.52612245,0.1875 C7.76530612,-0.0583333333 8.15306122,-0.0583333333 8.3922449,0.1875 C8.63102041,0.429166667 8.63102041,0.825 8.3922449,1.07083333 L1.04530612,8.56666667 C0.925714286,8.69166667 0.768979592,8.75 0.612244898,8.75" id="Fill-250" fill="#313B47"></path>
                    <path d="M6.79510204,5.125 C5.81428571,5.125 5.01918367,5.9375 5.01918367,6.9375 C5.01918367,7.9375 5.81428571,8.75 6.79510204,8.75 C7.77632653,8.75 8.57142857,7.9375 8.57142857,6.9375 C8.57142857,5.9375 7.77632653,5.125 6.79510204,5.125 Z M6.79510204,6.375 C7.09959184,6.375 7.34693878,6.625 7.34693878,6.9375 C7.34693878,7.25 7.09959184,7.5 6.79510204,7.5 C6.49102041,7.5 6.24367347,7.25 6.24367347,6.9375 C6.24367347,6.625 6.49102041,6.375 6.79510204,6.375 L6.79510204,6.375 Z" id="Fill-251" fill="#323C47"></path>
                    <path d="M1.77632653,2.8643754e-14 C0.795102041,2.8643754e-14 -2.28705943e-14,0.8125 -2.28705943e-14,1.8125 C-2.28705943e-14,2.81666667 0.795102041,3.625 1.77632653,3.625 C2.75714286,3.625 3.5522449,2.81666667 3.5522449,1.8125 C3.5522449,0.8125 2.75714286,2.8643754e-14 1.77632653,2.8643754e-14 Z M1.77632653,1.25 C2.08040816,1.25 2.3277551,1.50416667 2.3277551,1.8125 C2.3277551,2.125 2.08040816,2.375 1.77632653,2.375 C1.47183673,2.375 1.2244898,2.125 1.2244898,1.8125 C1.2244898,1.50416667 1.47183673,1.25 1.77632653,1.25 L1.77632653,1.25 Z" id="Fill-252" fill="#323C47"></path>
                </g>
            </g>
            <rect id="Rectangle" fill="#D8D8D8" fill-rule="nonzero" opacity="0" x="0" y="0" width="24" height="24"></rect>
            <g id="Group-34-Copy" transform="translate(2.000000, 0.000000)" fill="#323C47" fill-rule="nonzero">
                <circle id="Oval" fill-opacity="0.772956295" cx="15" cy="1" r="1"></circle>
                <circle id="Oval" fill-opacity="0.772956295" cx="1.75" cy="2.75" r="1"></circle>
                <circle id="Oval" opacity="0.44640532" cx="17.75" cy="4.75" r="1"></circle>
            </g>
        </g>
        <g id="Group-4-Copy-3" transform="translate(204.000000, 0.000000)">
            <rect id="Rectangle" x="0" y="0" width="24" height="24"></rect>
            <g id="Group-2" transform="translate(3.000000, 2.000000)" fill-rule="nonzero">
                <path d="M0.601666623,4 C0.269366147,4 1.77635684e-15,4.26030245 1.77635684e-15,4.58139996 C1.77635684e-15,4.90249746 0.269366147,5.16279992 0.601666623,5.16279992 L2.6009647,5.16279992 C3.59676307,7.54605331 4.57762006,9.93366332 5.56541627,12.3212772 L4.656659,14.434918 C4.58052811,14.6111403 4.60194745,14.8236226 4.71183183,14.9823254 C4.82173626,15.1410282 5.01683669,15.2412035 5.21444407,15.2404089 L15.2422211,15.2404089 C15.5600816,15.2446725 15.8524515,14.9662013 15.8524515,14.6590089 C15.8524515,14.3518166 15.5600816,14.0732678 15.2422211,14.077609 L6.116944,14.077609 L6.63714497,12.8784522 L16.2951377,12.1335432 C16.547938,12.114357 16.7767718,11.9240648 16.8341307,11.6853807 C17.1711528,10.2741461 17.4239194,9.2157201 17.5924304,8.51010278 C17.6913269,8.09598684 17.8396717,7.47481294 18.0374648,6.64658106 C18.1161628,6.30719271 17.8082499,5.93686613 17.4483329,5.93799986 C15.471296,5.93799986 13.9885184,5.93799986 13,5.93799986 C11.0484275,5.93799986 8.12106872,5.93799986 4.2179237,5.93799986 L3.56611819,4.36337497 C3.47687097,4.15022987 3.24627221,4 3.00833312,4 L0.601666623,4 Z M7.21999948,16.0156088 C6.11949106,16.0156088 5.21444407,16.8901506 5.21444407,17.9536087 C5.21444407,19.0170473 6.11949106,19.8916085 7.21999948,19.8916085 C8.3205079,19.8916085 9.22555489,19.0170473 9.22555489,17.9536087 C9.22555489,16.89017 8.3205079,16.0156088 7.21999948,16.0156088 Z M13.2366657,16.0156088 C12.1361573,16.0156088 11.2311103,16.89017 11.2311103,17.9536087 C11.2311103,19.0170473 12.1361573,19.8916085 13.2366657,19.8916085 C14.3371741,19.8916085 15.2422211,19.0170473 15.2422211,17.9536087 C15.2422211,16.8901506 14.3371741,16.0156088 13.2366657,16.0156088 Z M7.21999948,17.1784087 C7.6701865,17.1784087 8.02222164,17.5185859 8.02222164,17.9536087 C8.02222164,18.3886315 7.6701865,18.7288086 7.21999948,18.7288086 C6.76985257,18.7288086 6.41777731,18.3886121 6.41777731,17.9536087 C6.41777731,17.5186052 6.76985257,17.1784087 7.21999948,17.1784087 Z M13.2366657,17.1784087 C13.6868126,17.1784087 14.0388879,17.5186052 14.0388879,17.9536087 C14.0388879,18.3886121 13.6868126,18.7288086 13.2366657,18.7288086 C12.7864787,18.7288086 12.4344435,18.3886315 12.4344435,17.9536087 C12.4344435,17.5185859 12.7864787,17.1784087 13.2366657,17.1784087 Z" id="Shape" stroke="#323C47" stroke-width="0.7" fill="#323C47"></path>
                <polygon id="Path" fill="#FFFFFF" points="4.70052049 7.10079978 16.6899915 7.10079978 15.7561447 11.0131292 6.61207552 11.7156523"></polygon>
                <polygon id="Path" fill="#DCDEE0" points="6 8 16 8 15.2211109 11.3910765 7.59436145 12"></polygon>
                <g id="Group-34-Copy" fill="#323C47">
                    <circle id="Oval" fill-opacity="0.772956295" cx="14" cy="1" r="1"></circle>
                    <circle id="Oval" fill-opacity="0.772956295" cx="0.75" cy="2.75" r="1"></circle>
                    <circle id="Oval" opacity="0.44640532" cx="16.75" cy="4.75" r="1"></circle>
                </g>
            </g>
        </g>
        <g id="Group-18-Copy-3" transform="translate(238.000000, 0.000000)">
            <g id="Group-3">
                <rect id="Rectangle" fill="#D8D8D8" opacity="0" x="0" y="0" width="24" height="24"></rect>
                <g id="Group-4" transform="translate(2.000000, 1.000000)">
                    <g id="Group-34-Copy" transform="translate(1.000000, 0.000000)" fill="#323C47" fill-rule="nonzero">
                        <circle id="Oval" fill-opacity="0.772956295" cx="14" cy="1" r="1"></circle>
                        <circle id="Oval" fill-opacity="0.772956295" cx="0.75" cy="2.75" r="1"></circle>
                        <circle id="Oval" opacity="0.44640532" cx="16.75" cy="4.75" r="1"></circle>
                    </g>
                    <g id="Group-16" transform="translate(0.000000, 2.000000)" stroke="#323C47" stroke-width="1.5">
                        <path d="M10,0.75 C4.89136606,0.75 0.75,4.89136606 0.75,10 C0.75,15.1086339 4.89136606,19.25 10,19.25 C15.1086339,19.25 19.25,15.1086339 19.25,10 C19.25,4.89136606 15.1086339,0.75 10,0.75 Z" id="Path"></path>
                        <path d="M13.5882,7.3854 C13.5882,9.3814 11.9702,10.9994 9.9742,10.9994 C7.97886667,10.9994 6.36086667,9.3814 6.36086667,7.3854 C6.36086667,5.3894 7.97886667,3.77206667 9.9742,3.77206667 C11.9702,3.77206667 13.5882,5.3894 13.5882,7.3854 Z" id="Stroke-5" stroke-linecap="round" stroke-linejoin="round"></path>
                        <path d="M3.73573333,17.0423333 C3.8404,13.687 6.59373333,10.9996667 9.9744,10.9996667 C13.3264,10.9996667 16.0610667,13.641 16.2097333,16.9563333" id="Stroke-3" stroke-linejoin="round"></path>
                    </g>
                    <g id="Group-2" transform="translate(5.000000, 6.000000)" fill="#323C47" fill-opacity="0.169157609">
                        <path d="M-5.68434189e-14,14.0423333 C0.104666667,10.687 2.858,7.99966667 6.23866667,7.99966667 C9.59066667,7.99966667 10.6057826,10.4235958 10.7544492,13.7389291 C7.06508839,14.8185823 5.0537413,15.3584089 4.72040796,15.3584089 C4.38707463,15.3584089 2.81360531,14.9197171 -5.68434189e-14,14.0423333 Z" id="Stroke-3"></path>
                        <circle id="Oval" cx="6.26426667" cy="3.12658228" r="3"></circle>
                    </g>
                </g>
            </g>
        </g>
        <g id="Group-24-Copy-3" transform="translate(170.000000, 0.000000)">
            <g id="Group-12">
                <g id="Group-5" transform="translate(3.000000, 2.000000)">
                    <g id="love-copy" transform="translate(0.000000, 4.000000)" stroke="#323C47" stroke-linecap="round" stroke-linejoin="round" stroke-width="1.5">
                        <path d="M9,15.8125 C9,15.8125 17.75,12.0345924 17.75,4.84829528 C17.6675122,2.42257908 15.7331258,0.5 13.375,0.5 C11.0168742,0.5 9.08248775,2.42257908 9,4.84829528 C8.91751225,2.42257908 6.98312579,0.5 4.625,0.5 C2.26687421,0.5 0.332487755,2.42257908 0.25,4.84829528 C0.25,12.0345924 9,15.8125 9,15.8125 Z" id="43.-love"></path>
                    </g>
                    <g id="Group-34-Copy" transform="translate(1.000000, 0.000000)" fill="#323C47" fill-rule="nonzero">
                        <circle id="Oval" fill-opacity="0.772956295" cx="14" cy="1" r="1"></circle>
                        <circle id="Oval" fill-opacity="0.772956295" cx="0.75" cy="2.75" r="1"></circle>
                        <circle id="Oval" opacity="0.44640532" cx="16.75" cy="4.75" r="1"></circle>
                    </g>
                    <path d="M9.5,18 C9.5,18 16,15.2860746 16,10.1236733 C15.9387234,8.38111803 14.5017506,7 12.75,7 C10.9982494,7 9.56127662,8.38111803 9.5,10.1236733 C9.43872338,8.38111803 8.00175059,7 6.25,7 C4.49824941,7 3.06127662,8.38111803 3,10.1236733 C3,15.2860746 9.5,18 9.5,18 Z" id="43.-love" fill-opacity="0.169157609" fill="#323C47"></path>
                </g>
                <rect id="Rectangle" fill="#D8D8D8" opacity="0" x="0" y="0" width="24" height="24"></rect>
            </g>
        </g>
    </g>
</svg>