<?xml version="1.0" encoding="utf-8"?>
<!-- Generator: Adobe Illustrator 26.0.3, SVG Export Plug-In . SVG Version: 6.00 Build 0)  -->
<svg version="1.1" id="Layer_1" xmlns="http://www.w3.org/2000/svg" xmlns:xlink="http://www.w3.org/1999/xlink" x="0px" y="0px"
	 viewBox="0 0 70 70" style="enable-background:new 0 0 70 70;" xml:space="preserve">
<style type="text/css">
	.st0{fill:none;stroke:#000000;stroke-width:5.000000e-02;stroke-miterlimit:10;}
	.st1{clip-path:url(#SVGID_00000111890689411472627830000014589266949986366645_);}
	.st2{fill:#AAAAAA;}
	.st3{fill:none;stroke:#AAAAAA;stroke-width:0.3989;stroke-miterlimit:10;}
	.st4{fill:#E6E6E8;}
	.st5{fill:#D72324;}
	.st6{fill:#FFFFFF;}
</style>
<g>
	<circle id="SVGID_00000119821115560741730130000018414265356359660172_" class="st0" cx="35" cy="35" r="34.7"/>
</g>
<g>
	<g>
		<defs>
			<circle id="SVGID_1_" cx="35" cy="35" r="34.7"/>
		</defs>
		<clipPath id="SVGID_00000083803587190535803290000006392723706315974276_">
			<use xlink:href="#SVGID_1_"  style="overflow:visible;"/>
		</clipPath>
		<g style="clip-path:url(#SVGID_00000083803587190535803290000006392723706315974276_);">
			<ellipse class="st2" cx="35.4" cy="57.5" rx="18.1" ry="1.7"/>
			<g>
				<path class="st2" d="M62.7,44.1c-0.6,0-1.1-0.5-1.1-1.1s0.5-1.1,1.1-1.1c0.6,0,1.1,0.5,1.1,1.1S63.3,44.1,62.7,44.1z M62.7,42.3
					c-0.4,0-0.7,0.3-0.7,0.7s0.3,0.7,0.7,0.7c0.4,0,0.7-0.3,0.7-0.7S63.1,42.3,62.7,42.3z"/>
			</g>
			<circle class="st3" cx="48.2" cy="17.9" r="0.9"/>
			<g>
				<path class="st2" d="M14,53.3c-0.6,0-1.1-0.5-1.1-1.1c0-0.6,0.5-1.1,1.1-1.1s1.1,0.5,1.1,1.1C15.1,52.8,14.6,53.3,14,53.3z
					 M14,51.5c-0.4,0-0.7,0.3-0.7,0.7c0,0.4,0.3,0.7,0.7,0.7s0.7-0.3,0.7-0.7C14.7,51.8,14.4,51.5,14,51.5z"/>
			</g>
			<g>
				<path class="st2" d="M6.9,37.7c-0.6,0-1.1-0.5-1.1-1.1c0-0.6,0.5-1.1,1.1-1.1S8,36,8,36.6C8,37.2,7.5,37.7,6.9,37.7z M6.9,35.9
					c-0.4,0-0.7,0.3-0.7,0.7c0,0.4,0.3,0.7,0.7,0.7s0.7-0.3,0.7-0.7C7.6,36.2,7.3,35.9,6.9,35.9z"/>
			</g>
			<g>
				<polygon class="st2" points="60.7,31.7 59.3,30.3 59.5,30.1 60.9,31.5 				"/>
			</g>
			<g>
				<polygon class="st2" points="59.5,31.7 59.3,31.5 60.7,30.1 60.9,30.3 				"/>
			</g>
			<g>
				<rect x="14.7" y="14" transform="matrix(0.7072 -0.707 0.707 0.7072 -6.2424 14.9257)" class="st2" width="0.4" height="2"/>
			</g>
			<g>
				
					<rect x="13.9" y="14.8" transform="matrix(0.7071 -0.7071 0.7071 0.7071 -6.2424 14.9294)" class="st2" width="2" height="0.4"/>
			</g>
			<path class="st4" d="M35.5,11.1c-10.5,0-19.1,8.5-19.1,19.1c0,7.1,8.6,17,14.3,22.8c2.7,2.8,4.8,4.6,4.8,4.6s2-1.8,4.8-4.6
				c5.6-5.8,14.3-15.7,14.3-22.8C54.6,19.6,46,11.1,35.5,11.1L35.5,11.1z M35.5,46.2c-8.8,0-15.9-7.1-15.9-15.9s7.1-15.9,15.9-15.9
				s15.9,7.1,15.9,15.9C51.3,39.1,44.2,46.2,35.5,46.2L35.5,46.2z"/>
			<circle class="st5" cx="35.5" cy="30.1" r="14.2"/>
			<path class="st6" d="M40.5,37L28.9,24.6c-0.4-0.4-0.4-1.1,0.1-1.5l0,0c0.4-0.4,1.1-0.4,1.5,0.1l11.5,12.3
				c0.4,0.4,0.4,1.1-0.1,1.5h0C41.6,37.4,40.9,37.4,40.5,37z"/>
		</g>
	</g>
</g>
</svg>
