<svg xmlns="http://www.w3.org/2000/svg" width="19" height="22" viewBox="0 0 19 22">
    <g fill="none" fill-rule="evenodd">
        <g fill="#ed404b" fill-rule="nonzero">
            <g>
                <path d="M13.9 0H1.986C1.459 0 .954.209.581.581.21.954 0 1.46 0 1.986v13.9h1.986v-13.9H13.9V0z" transform="translate(-311 -4210) translate(311 4210)"/>
                <path d="M16.878 3.971H5.957c-.527 0-1.032.209-1.405.581-.372.373-.581.878-.581 1.405v13.9c0 .527.209 1.032.581 1.405.373.372.878.581 1.405.581h10.921c.527 0 1.032-.209 1.405-.581.372-.373.581-.878.581-1.405v-13.9c0-.527-.209-1.032-.581-1.405-.373-.372-.878-.581-1.405-.581zm0 15.885H5.957v-13.9h10.921v13.9z" transform="translate(-311 -4210) translate(311 4210)"/>
            </g>
        </g>
    </g>
</svg>
